<svg version="1.1" id="Layer_1" xmlns="http://www.w3.org/2000/svg" xmlns:xlink="http://www.w3.org/1999/xlink" x="0px" y="0px"
	 width="100%" viewBox="0 0 561 445" enable-background="new 0 0 561 445" xml:space="preserve">
<path fill="#A09FA8" opacity="1.000000" stroke="none" 
	d="
M381.000000,446.000000 
	C254.000031,446.000000 127.500061,446.000000 1.000068,446.000000 
	C1.000045,297.666718 1.000045,149.333466 1.000023,1.000148 
	C187.999893,1.000098 374.999786,1.000098 561.999756,1.000049 
	C561.999878,149.333191 561.999878,297.666382 561.999939,445.999786 
	C501.833344,446.000000 441.666656,446.000000 381.000000,446.000000 
M318.467194,145.021179 
	C318.467194,145.021179 318.920441,144.904617 319.614380,144.757523 
	C326.949188,140.717178 334.291504,136.687805 341.045776,131.796509 
	C340.618652,131.085449 340.191559,130.374390 339.764435,129.663330 
	C331.454742,134.067841 323.145020,138.472336 314.135071,143.039322 
	C310.014709,145.294144 305.894379,147.548965 301.072144,149.956100 
	C298.056946,151.638184 295.041718,153.320267 291.409180,155.218628 
	C290.611237,155.547440 289.813263,155.876251 288.199127,156.113327 
	C285.826965,155.495697 283.454803,154.878067 281.082642,154.260437 
	C281.145020,153.684647 281.207397,153.108841 281.269775,152.533035 
	C283.524139,151.027313 285.778503,149.521576 288.768616,147.978333 
	C292.176361,146.265945 295.584106,144.553558 299.663147,142.677643 
	C306.763397,138.779800 313.863647,134.881958 321.674713,130.842773 
	C325.179901,129.107391 328.685059,127.372002 332.190247,125.636612 
	C331.890106,125.052162 331.589996,124.467712 331.289856,123.883263 
	C327.507629,125.891434 323.725403,127.899612 319.202728,130.029297 
	C311.829193,133.365799 304.455658,136.702301 296.356720,140.204269 
	C293.232452,141.731201 290.108185,143.258148 286.253754,144.923996 
	C283.202118,146.387466 280.150482,147.850922 276.308746,149.233856 
	C274.106689,148.496368 271.904663,147.758881 269.759705,146.174423 
	C269.754944,145.891754 269.750183,145.609070 270.343079,145.057159 
	C274.298126,142.813019 278.253143,140.568878 282.940491,138.219910 
	C285.643341,136.868820 288.346191,135.517731 291.765472,134.034073 
	C298.264008,130.550186 304.762512,127.066307 311.261047,123.582420 
	C310.943665,122.939911 310.626282,122.297401 310.308899,121.654892 
	C303.871002,124.751152 297.433105,127.847404 290.258759,131.068130 
	C287.099396,132.618164 283.940063,134.168198 280.044830,135.868546 
	C276.028473,137.900314 272.012146,139.932068 267.261871,142.032242 
	C265.836426,142.426804 264.411011,142.821381 262.514435,142.717972 
	C261.612823,141.436356 260.711212,140.154739 260.441223,138.557877 
	C262.978394,137.066605 265.515594,135.575333 268.779572,133.986771 
	C272.173096,132.235153 275.566589,130.483551 279.635345,128.598984 
	C290.397797,122.884926 301.160278,117.170868 311.922729,111.456802 
	C311.752441,111.084518 311.582153,110.712227 311.411865,110.339935 
	C309.035767,111.303558 306.604950,112.152046 304.293396,113.251381 
	C295.812164,117.284889 287.370575,121.401764 278.135681,125.700691 
	C274.722992,127.284599 271.310333,128.868500 267.148621,130.660309 
	C263.138306,132.495514 259.127960,134.330719 254.298874,136.109848 
	C251.458237,136.090836 248.873047,135.741470 249.573303,131.751953 
	C250.704865,131.080307 251.836441,130.408646 253.536057,129.630478 
	C254.131149,129.152588 254.726242,128.674713 255.817719,128.044922 
	C256.266449,127.788162 256.715179,127.531403 257.867279,127.088966 
	C261.216278,125.350677 264.565308,123.612389 268.597046,121.710114 
	C275.532593,117.999290 282.468140,114.288467 289.403687,110.577644 
	C289.073334,109.888397 288.742981,109.199150 288.412628,108.509903 
	C280.964478,112.043289 273.516327,115.576683 265.354065,119.256760 
	C261.771454,121.075706 258.188843,122.894653 253.882919,124.820213 
	C249.960205,126.597504 246.037506,128.374802 241.397110,129.955170 
	C239.554321,128.271225 237.711517,126.587303 236.418716,124.630928 
	C237.286316,124.102417 238.153900,123.573914 239.759644,122.987900 
	C242.142990,121.906143 244.526321,120.824394 247.586609,119.631729 
	C249.733902,118.439117 251.881195,117.246506 254.726334,115.979286 
	C256.532806,115.051636 258.339294,114.123978 260.884857,113.063499 
	C266.576508,110.325050 272.268127,107.586601 278.668030,104.735878 
	C285.214569,101.463219 291.761078,98.190559 298.307617,94.917900 
	C298.038147,94.326210 297.768677,93.734512 297.499207,93.142822 
	C291.343597,95.692505 285.188019,98.242195 278.255432,100.889915 
	C275.281860,101.799751 272.241669,102.538071 269.350952,103.661156 
	C265.392242,105.199188 261.547028,107.029442 256.943848,108.855049 
	C254.602600,109.812477 252.261337,110.769897 249.142807,111.818985 
	C246.423721,112.864937 243.704651,113.910881 240.277481,115.115669 
	C238.184921,116.075668 236.092346,117.035667 233.259186,118.101845 
	C229.805817,119.713150 226.352448,121.324455 222.294022,123.099045 
	C218.917114,125.088348 221.020660,126.976555 222.834778,127.903381 
	C227.793228,130.436615 232.788971,133.227844 238.108429,134.657150 
	C250.613113,138.017059 260.392517,146.105240 271.121521,152.549820 
	C274.887756,154.812057 278.419739,157.464249 282.557373,160.377304 
	C284.030579,161.302948 285.503815,162.228592 287.158417,163.565430 
	C287.879395,163.289413 288.600342,163.013397 289.998810,162.500610 
	C291.988373,161.268753 293.977936,160.036880 296.672119,158.751663 
	C300.165009,156.542603 303.657898,154.333542 307.827576,151.967056 
	C310.609406,150.040695 313.391266,148.114334 316.701599,146.006104 
	C317.155853,145.685226 317.610107,145.364365 318.010254,145.011688 
	C318.010254,145.011688 318.002197,145.073914 318.467194,145.021179 
M296.467926,218.617752 
	C296.271515,222.748566 296.075104,226.879395 295.878693,231.010208 
	C296.369537,231.031235 296.860382,231.052261 297.351227,231.073288 
	C297.552155,227.359802 297.753082,223.646317 298.042145,219.108078 
	C298.630798,213.057434 299.219452,207.006775 299.942413,200.131027 
	C300.267853,195.715576 300.593262,191.300110 301.044861,186.102448 
	C301.273041,183.382568 301.501221,180.662674 301.844910,177.087997 
	C302.117615,174.030045 302.390350,170.972107 303.313385,167.616364 
	C305.273682,166.724213 307.233978,165.832062 309.205902,165.865829 
	C309.224243,169.220139 309.242584,172.574463 309.109619,176.852356 
	C309.050110,180.548416 308.990601,184.244492 308.595459,188.696213 
	C308.085266,201.076752 307.575104,213.457291 307.064941,225.837830 
	C307.552612,225.867035 308.040283,225.896225 308.527954,225.925415 
	C309.613770,213.278412 310.699615,200.631409 311.901062,187.152130 
	C312.200684,183.739243 312.500305,180.326340 312.983887,176.111099 
	C313.410370,171.448029 313.836823,166.784958 314.852722,161.872772 
	C316.592987,161.579605 318.333282,161.286423 320.025757,161.915527 
	C320.014069,165.621948 320.002411,169.328354 319.905884,173.915741 
	C319.719391,177.595322 319.532898,181.274902 319.217804,185.885300 
	C319.217804,197.539001 319.217804,209.192703 319.217804,221.082825 
	C319.631470,216.852371 320.100006,212.796906 320.410461,208.729385 
	C321.014709,200.812195 321.530365,192.888214 322.338257,184.239288 
	C322.740051,180.473114 323.141846,176.706940 323.686188,172.049927 
	C324.081268,167.357788 324.476349,162.665665 325.277527,157.394150 
	C326.251007,154.020691 327.857422,151.437210 331.996735,152.944702 
	C331.829895,158.294647 331.663055,163.644592 331.268372,169.780045 
	C331.107727,177.479141 330.947083,185.178253 330.447662,193.541626 
	C330.314178,195.031937 330.180725,196.522232 330.031555,198.893570 
	C330.053375,201.242050 330.075195,203.590546 330.032928,206.753555 
	C330.032928,208.492844 330.032928,210.232132 330.032928,211.971405 
	C330.347839,211.978394 330.662750,211.985382 330.977692,211.992355 
	C331.195099,209.943024 331.412537,207.893677 331.723480,204.972229 
	C332.742645,193.260925 333.761810,181.549622 334.897095,169.027634 
	C335.470428,162.426453 336.043762,155.825272 337.035950,148.627838 
	C339.610992,147.126144 342.186035,145.624451 344.840424,144.744492 
	C344.887695,145.159760 344.934967,145.575027 344.670807,146.739487 
	C344.423126,149.480911 344.175476,152.222321 343.585510,155.658218 
	C343.412415,157.777237 343.239319,159.896240 342.705994,162.736572 
	C342.483612,166.482620 342.261230,170.228668 341.969757,174.808838 
	C341.940491,176.203018 341.911224,177.597183 341.850372,179.502991 
	C341.856689,179.673721 341.863037,179.844467 341.821228,180.503159 
	C341.821228,180.503159 341.840973,180.993088 341.804840,181.501083 
	C341.811218,181.670715 341.817566,181.840363 341.769623,182.496460 
	C341.769623,182.496460 341.804047,182.984726 341.720764,183.429749 
	C341.720764,183.429749 341.655457,183.877747 341.396973,184.399063 
	C341.322754,184.975525 341.248535,185.551987 340.767761,186.821884 
	C340.186157,196.393539 339.604584,205.965195 339.022980,215.536865 
	C339.542236,215.580231 340.061493,215.623596 340.580750,215.666946 
	C342.093506,207.746201 343.626251,199.829132 345.092468,191.899780 
	C345.266296,190.959839 345.076477,189.952652 345.109772,188.181641 
	C346.073120,182.447998 347.036469,176.714355 348.332611,170.315964 
	C348.756561,167.502914 349.180511,164.689880 349.796570,161.100296 
	C350.227814,157.382935 350.659088,153.665588 351.277496,149.255463 
	C351.423523,147.831268 351.569580,146.407089 351.896271,144.211792 
	C352.186310,142.132446 352.476379,140.053085 353.167511,137.446701 
	C352.860565,136.161652 352.553619,134.876602 352.246674,133.591568 
	C351.079529,134.044830 349.751709,134.277878 348.774231,134.991089 
	C345.322327,137.509750 342.204651,140.548309 338.568726,142.740189 
	C330.822235,147.410034 322.945374,151.896790 314.901459,156.029312 
	C308.798248,159.164810 302.392365,161.728226 296.050354,164.376526 
	C290.470062,166.706711 285.935974,169.957458 284.087982,177.027237 
	C284.099701,182.345291 284.111450,187.663330 284.166443,193.819458 
	C284.560394,197.561539 284.954315,201.303619 285.264130,205.972748 
	C285.264130,218.300339 285.264130,230.627914 285.264130,242.955505 
	C285.968323,242.965897 286.672485,242.976288 287.376678,242.986679 
	C288.129425,230.061707 288.882141,217.136749 289.787994,203.255783 
	C289.846436,199.826050 289.904846,196.396332 290.060455,192.136261 
	C290.316589,188.052368 290.830597,183.964264 290.763672,179.885666 
	C290.679688,174.767838 293.038513,172.309082 297.983887,172.863831 
	C298.000946,174.574280 298.018036,176.284714 297.908783,178.853668 
	C297.839996,180.861435 297.771210,182.869202 297.419342,185.658905 
	C297.301239,190.752274 297.183136,195.845642 296.997589,201.884613 
	C296.944824,207.212646 296.892059,212.540680 296.467926,218.617752 
M257.815918,206.220276 
	C255.247452,204.754395 252.678970,203.288528 249.686691,201.311691 
	C243.838898,196.657455 237.309937,193.262238 230.925079,189.600693 
	C230.581177,190.182846 230.237289,190.765015 229.893387,191.347168 
	C236.603027,195.879364 243.312653,200.411575 250.429764,205.471146 
	C253.225983,207.344589 256.022217,209.218033 259.250458,211.578430 
	C260.492889,212.398895 261.735321,213.219360 263.449249,214.510666 
	C265.934052,216.137985 268.418823,217.765305 271.288239,219.964569 
	C274.990082,223.045853 275.101410,226.655960 272.284271,230.185638 
	C270.702759,229.246399 269.121216,228.307159 267.289307,226.798981 
	C265.176971,225.256134 263.064606,223.713287 260.471863,221.698624 
	C258.366852,220.384003 256.261871,219.069397 253.810196,217.209396 
	C251.949493,216.028595 250.088806,214.847794 247.903961,213.099136 
	C242.284149,209.661438 236.664322,206.223740 230.758987,202.206482 
	C225.709961,198.482498 220.660950,194.758499 215.611938,191.034515 
	C215.176346,191.615311 214.740753,192.196091 214.305161,192.776886 
	C219.839874,197.247208 225.374588,201.717545 231.313416,206.704346 
	C237.520325,211.560089 243.727219,216.415848 250.172516,221.818619 
	C251.112396,222.548447 252.052261,223.278259 253.358124,224.556381 
	C255.607269,226.288696 257.856415,228.020996 260.486115,230.300522 
	C262.654510,231.871521 264.822937,233.442520 267.402344,235.526230 
	C269.578156,237.048828 271.753998,238.571426 274.321930,240.588287 
	C275.519440,241.178268 276.716919,241.768265 278.716248,242.753311 
	C278.006561,238.926559 277.060028,236.213821 277.078705,233.507736 
	C277.157776,222.066193 277.455475,210.624527 277.806030,199.186996 
	C278.110138,189.263977 278.305359,179.322525 279.127594,169.437378 
	C279.495941,165.008667 278.215302,162.764206 273.534393,161.510834 
	C270.781677,160.124619 268.028961,158.738419 264.924469,156.838074 
	C262.652710,155.864716 260.380981,154.891373 257.822174,153.311234 
	C255.207428,151.868500 252.592667,150.425766 249.479568,148.534973 
	C240.115082,143.233887 230.750580,137.932785 221.386093,132.631699 
	C221.046158,133.184540 220.706223,133.737381 220.366302,134.290222 
	C222.287140,135.686478 224.148346,137.174927 226.139236,138.462891 
	C234.346512,143.772415 242.593140,149.021103 251.280014,154.762421 
	C253.801498,156.290298 256.322968,157.818161 259.285980,159.817871 
	C261.532745,161.129456 263.779510,162.441040 266.382599,163.994736 
	C266.382599,163.994736 266.765961,164.191315 267.083344,164.686401 
	C267.752136,165.045853 268.420959,165.405289 269.628326,166.080719 
	C270.388672,166.408615 271.149048,166.736511 272.192871,167.804550 
	C272.897522,170.639175 275.299866,173.994644 269.493958,174.520920 
	C265.997589,173.009308 262.501251,171.497681 258.929932,169.280670 
	C255.973755,167.099487 253.017578,164.918304 249.644760,162.235107 
	C244.412140,158.950882 239.179520,155.666656 233.946915,152.382431 
	C233.558334,153.011841 233.169754,153.641251 232.781189,154.270676 
	C238.182510,157.861252 243.583832,161.451828 249.378006,165.573792 
	C252.617996,167.631454 255.857986,169.689117 259.572266,172.224014 
	C262.621582,174.301529 265.670929,176.379028 269.046814,179.029404 
	C270.254791,180.124466 271.869385,181.013245 272.558350,182.371552 
	C273.273102,183.780594 273.091614,185.644287 273.302063,187.309143 
	C271.826233,187.124878 270.216644,187.252151 268.903656,186.688522 
	C266.511139,185.661545 264.294495,184.224808 261.563293,182.465256 
	C258.032135,180.352112 254.500992,178.238968 250.486572,175.653946 
	C245.007904,172.391037 239.529236,169.128128 233.654846,165.338776 
	C229.593903,162.618774 225.532974,159.898773 221.472031,157.178772 
	C221.112991,157.738907 220.753967,158.299026 220.394943,158.859161 
	C224.596115,161.565979 228.797287,164.272781 233.420105,167.494049 
	C238.926575,171.341171 244.433044,175.188309 250.358734,179.554871 
	C253.571793,181.735031 256.784851,183.915176 260.486694,186.528946 
	C263.913300,189.128387 267.421051,191.629120 270.740601,194.358765 
	C273.361603,196.514008 274.858398,198.965714 270.388031,200.892929 
	C266.942963,198.840073 263.497894,196.787216 259.634766,194.249619 
	C257.519684,193.060822 255.404617,191.872040 252.922318,190.131989 
	C248.311142,187.342819 243.699966,184.553650 238.665466,181.274551 
	C233.018036,177.576782 227.370605,173.879013 221.723175,170.181244 
	C221.389725,170.700470 221.056290,171.219681 220.722855,171.738907 
	C226.451904,175.502487 232.180969,179.266083 238.325302,183.558365 
	C242.494934,186.437439 246.664551,189.316528 251.256470,192.703873 
	C253.830856,194.466568 256.405243,196.229263 259.460999,198.451630 
	C262.207367,200.377533 264.953705,202.303436 268.081177,204.788818 
	C269.524048,205.899979 271.057251,206.913208 272.390900,208.142822 
	C275.103210,210.643600 274.614197,212.949509 270.675537,214.281647 
	C268.428528,212.904175 266.181488,211.526703 263.478088,209.655762 
	C261.710388,208.695450 259.942719,207.735138 257.815918,206.220276 
M96.397720,322.525238 
	C96.067078,328.811157 95.363602,335.110199 95.584282,341.376709 
	C95.676064,343.982788 97.966583,344.747986 99.891144,341.021484 
	C99.923523,336.082306 100.175301,331.128662 99.851021,326.213013 
	C99.756981,324.787598 98.012390,323.471100 96.397720,322.525238 
M455.124023,336.558929 
	C455.140137,337.151978 455.156219,337.745026 455.163544,339.102356 
	C456.014923,343.661346 463.486938,345.914093 467.215271,342.735840 
	C469.918060,340.431885 469.147675,329.137268 465.848999,328.201965 
	C463.081268,327.417175 459.446136,327.555481 456.947876,328.798309 
	C455.561981,329.487732 455.719086,333.278717 455.124023,336.558929 
M259.683746,336.789337 
	C259.811432,336.684540 259.989929,336.605927 260.059418,336.471161 
	C262.016479,332.673981 261.005463,329.754120 257.236481,327.949371 
	C253.054962,325.947113 247.872879,327.635010 246.072754,331.383240 
	C244.146790,335.393494 245.317566,341.261047 248.409775,343.095825 
	C251.280289,344.799042 258.159729,344.105164 259.348694,341.895905 
	C259.578674,341.468536 259.125397,340.673431 258.996155,339.323120 
	C259.008179,338.602875 259.020203,337.882599 259.683746,336.789337 
M405.100677,344.931122 
	C406.467163,349.849518 409.956085,351.419586 414.597168,350.517731 
	C418.970245,349.667938 420.979736,346.752533 420.736481,342.258728 
	C420.629242,340.278259 420.729340,338.286652 420.731812,336.300110 
	C420.741577,328.377411 418.292206,326.245758 410.352875,327.279114 
	C406.305206,327.805939 403.857574,329.983154 404.222107,334.194305 
	C404.443146,336.747437 405.422363,339.234924 405.792114,342.362427 
	C405.553680,342.984222 405.315247,343.605988 405.100677,344.931122 
M339.485687,291.945862 
	C341.279205,293.076019 343.072693,294.206177 344.866211,295.336334 
	C344.357666,293.299042 344.286133,291.003662 343.262573,289.270538 
	C339.455811,282.824799 335.431458,276.499817 331.256165,270.285767 
	C330.383301,268.986664 327.953552,267.258759 327.227875,267.634430 
	C325.578918,268.488068 323.771210,270.368500 323.413788,272.115112 
	C322.586548,276.157410 322.412781,280.362885 322.285583,284.511719 
	C322.116516,290.025818 322.243835,295.548981 322.243835,301.068268 
	C324.177948,300.269348 325.455872,299.067383 325.845520,297.625366 
	C327.483826,291.562195 333.059692,288.816467 339.485687,291.945862 
M366.661407,343.381592 
	C372.387604,341.729431 369.525543,337.141998 369.492096,333.929688 
	C369.452332,330.117310 367.022095,327.384460 362.795685,327.276703 
	C358.354401,327.163452 353.897552,327.088684 349.465393,327.327850 
	C343.121246,327.670135 342.358154,328.608673 342.318176,334.840759 
	C342.308533,336.339600 342.001373,337.941345 342.427490,339.310059 
	C342.895020,340.811829 344.052216,342.098846 344.908936,343.479462 
	C345.835571,342.176849 346.940765,340.959595 347.620026,339.538757 
	C348.011139,338.720642 347.384705,337.403870 347.794067,336.609253 
	C348.635834,334.975311 349.865784,333.541382 350.935974,332.025116 
	C351.990082,333.608856 353.321869,335.082458 354.007904,336.812195 
	C354.529480,338.127197 353.969604,339.847137 354.392273,341.234131 
	C354.651886,342.085907 355.769958,342.946594 356.675049,343.209564 
	C357.087463,343.329407 358.327576,342.092804 358.475220,341.332275 
	C358.820251,339.554688 358.364960,337.568451 358.930023,335.902954 
	C359.419434,334.460297 360.866974,333.342743 361.891022,332.081482 
	C362.956482,333.295746 364.524475,334.350067 364.973297,335.760529 
	C365.704346,338.058136 365.704254,340.588348 366.661407,343.381592 
M220.638657,339.537048 
	C220.982330,340.955627 221.847427,342.485077 221.573746,343.772400 
	C220.685318,347.951202 222.957535,349.764954 226.361694,350.469910 
	C230.385910,351.303314 234.814621,350.656860 235.761414,346.250916 
	C236.850403,341.183075 236.406158,335.756805 236.304611,330.492462 
	C236.288910,329.678406 234.670395,328.531036 233.580963,328.158966 
	C223.957825,324.872314 219.380188,328.593994 220.638657,339.537048 
M269.119171,284.347534 
	C263.005676,281.196960 258.711151,281.192474 255.816360,284.416931 
	C258.425293,287.931946 264.821381,283.361481 266.730469,289.966431 
	C263.878845,290.429138 261.334473,290.766418 258.822449,291.266235 
	C254.391785,292.147797 251.748444,295.234009 252.356339,298.671173 
	C252.989182,302.249420 256.317657,304.259888 260.808105,303.738922 
	C263.928223,303.376953 267.043152,302.970215 270.505127,302.540710 
	C270.823944,299.920715 271.584442,296.806396 271.468811,293.724915 
	C271.356903,290.743927 270.343079,287.796753 269.119171,284.347534 
M237.053482,296.195923 
	C234.720551,295.461792 232.231277,295.013733 230.125900,293.863190 
	C229.185944,293.349548 229.017578,291.424011 228.499023,290.139282 
	C229.678391,289.824860 230.864212,289.227814 232.035751,289.254639 
	C234.499557,289.311127 237.119202,290.328430 239.364883,289.749268 
	C241.249069,289.263367 243.592682,287.321045 244.078079,285.565918 
	C244.556870,283.834564 243.526382,280.962646 242.157181,279.587952 
	C238.903397,276.321075 231.627365,276.219757 228.228607,278.797394 
	C224.371307,281.722809 222.501160,289.395203 224.584076,293.749298 
	C226.242554,297.216125 233.430023,300.646545 237.407227,299.726562 
	C240.385605,299.037598 240.118073,297.768982 237.053482,296.195923 
M154.302185,338.864502 
	C155.396667,343.430878 158.799545,343.997925 162.765533,344.007538 
	C166.642578,344.016937 168.257416,342.444611 167.650024,338.550934 
	C167.582489,338.118103 168.505127,337.588715 168.836823,337.026428 
	C171.277771,332.888519 169.381073,328.552246 164.668823,327.436829 
	C157.393875,325.714844 154.005661,329.153076 154.302185,338.864502 
M444.280853,337.284424 
	C447.337982,333.597534 445.250427,330.759186 442.464966,328.459839 
	C439.356598,325.894043 433.183319,327.020142 430.809113,330.225616 
	C428.415466,333.457306 428.653625,340.998413 431.912201,342.436310 
	C434.819489,343.719238 438.530853,343.273468 441.881897,343.223206 
	C442.081024,343.220245 442.176666,339.941315 442.458405,338.209198 
	C442.504761,337.924255 443.268311,337.755981 444.280853,337.284424 
M395.109161,332.624603 
	C393.031738,328.061005 387.344238,325.539520 383.880310,327.646423 
	C381.055603,329.364532 378.053894,338.945374 379.710266,341.346069 
	C380.328125,342.241577 381.302521,343.096161 382.303101,343.490540 
	C391.097321,346.957092 396.297211,343.115997 395.395325,333.906555 
	C395.379303,333.742798 395.335175,333.581787 395.109161,332.624603 
M281.853760,334.069000 
	C282.023834,336.379639 282.070160,338.709778 282.428986,340.990723 
	C282.560242,341.825195 283.286469,342.788757 284.019897,343.225861 
	C284.492401,343.507477 286.110596,342.985107 286.128479,342.742920 
	C286.380768,339.324768 287.146210,335.707550 286.304932,332.531189 
	C285.767426,330.501678 283.040497,328.234283 280.855560,327.608582 
	C273.611481,325.534058 270.037140,328.651337 270.347076,336.530792 
	C270.438416,338.852997 271.888458,343.144104 272.462555,343.101776 
	C276.670135,342.791168 274.610382,339.167572 274.853760,336.911621 
	C275.395844,331.886719 276.759979,331.016205 281.853760,334.069000 
M124.672974,331.084900 
	C123.630379,330.061371 122.750603,328.733704 121.514374,328.071899 
	C117.943314,326.160217 109.779289,327.624756 109.459358,330.277405 
	C109.025734,333.872833 109.235229,337.569305 109.470848,341.202850 
	C109.519966,341.960449 110.886253,342.632629 111.645531,343.344177 
	C112.330757,342.536407 113.403389,341.818115 113.615265,340.900970 
	C113.982018,339.313416 113.388107,337.423462 113.988312,335.992126 
	C114.632095,334.456818 116.188385,333.304199 117.346474,331.984589 
	C118.604988,333.372467 120.207794,334.589508 121.009018,336.204285 
	C121.609642,337.414825 120.922516,339.204437 121.291481,340.609467 
	C121.566101,341.655304 122.613510,342.498199 123.316750,343.431458 
	C124.101761,342.525177 125.527328,341.636871 125.553383,340.709290 
	C125.636223,337.759094 125.197876,334.794312 124.672974,331.084900 
M283.086182,273.395691 
	C283.113708,276.872498 283.099640,280.350281 283.178497,283.825928 
	C283.298523,289.115753 283.116577,294.448334 283.747559,299.680176 
	C284.327667,304.490173 286.811737,305.548645 290.338013,304.130127 
	C289.509949,300.102234 288.436371,296.336670 288.032104,292.500580 
	C287.635071,288.732605 287.956482,284.892334 287.888000,281.085114 
	C287.846436,278.775116 287.958679,276.402802 287.470062,274.175171 
	C286.842102,271.312164 285.306458,270.912018 283.086182,273.395691 
M306.377869,341.441589 
	C302.849640,337.800079 300.680511,334.036285 305.735535,329.760712 
	C304.780426,328.632629 304.169922,327.611633 303.290558,326.945679 
	C302.073273,326.023804 300.402374,324.520508 299.386230,324.821411 
	C298.198761,325.173035 296.629700,327.293335 296.758148,328.480591 
	C297.215088,332.705322 297.751923,337.104645 299.400635,340.947937 
	C300.377289,343.224609 303.393585,345.286316 306.377869,341.441589 
M218.512146,274.199860 
	C217.590591,273.266785 216.829666,271.904053 215.715057,271.487335 
	C213.152481,270.529297 210.417770,270.031708 206.969284,269.145935 
	C204.717697,274.735016 202.206345,280.968933 199.694977,287.202820 
	C200.163040,287.603302 200.631104,288.003784 201.099167,288.404266 
	C202.520157,287.235596 204.698471,286.337799 205.230240,284.851044 
	C207.456665,278.626190 210.226120,273.533264 218.512146,274.199860 
M194.644119,343.472992 
	C195.597504,342.760864 197.346115,342.082428 197.377945,341.331268 
	C197.623383,335.540100 197.596909,329.733582 197.473007,323.935699 
	C197.458023,323.234314 196.311859,321.954803 195.774445,321.997864 
	C194.791702,322.076660 193.041031,322.961792 193.052231,323.479431 
	C193.195160,330.080048 193.594467,336.675171 194.644119,343.472992 
M143.839218,343.199249 
	C143.975433,342.157440 144.588928,340.487854 144.173309,340.171875 
	C140.426605,337.323364 139.579849,334.565033 143.010834,330.667206 
	C143.484283,330.129333 141.053589,326.823639 139.620331,325.085541 
	C139.440384,324.867340 136.080750,326.298462 135.991440,327.153168 
	C135.670822,330.221680 135.979568,333.386230 136.316132,336.485626 
	C136.756332,340.539490 138.715866,343.303375 143.839218,343.199249 
M354.867767,277.735565 
	C358.975677,288.128754 358.975677,288.128754 364.300903,287.991821 
	C361.585327,281.975006 359.594116,275.991760 356.301361,270.840485 
	C354.234497,267.606934 351.232239,269.350677 349.546814,272.234802 
	C351.383759,273.984070 352.982544,275.506500 354.867767,277.735565 
M179.116501,339.144897 
	C179.977417,340.617126 180.838333,342.089355 181.699234,343.561584 
	C182.431351,342.117462 183.714844,340.702820 183.794037,339.223755 
	C184.049500,334.452545 184.005127,329.649567 183.738098,324.877747 
	C183.675568,323.760345 182.280243,322.717468 181.498108,321.640320 
	C180.713501,322.714142 179.320023,323.750610 179.251465,324.868317 
	C178.979233,329.308105 179.120743,333.773285 179.116501,339.144897 
M329.175812,338.195862 
	C329.922638,339.947357 330.669464,341.698822 331.416290,343.450317 
	C332.219269,341.690918 333.564728,339.976562 333.715393,338.162964 
	C334.058411,334.033844 333.967316,329.846649 333.713043,325.703888 
	C333.640991,324.530121 332.397369,323.428253 331.691040,322.293427 
	C330.856750,323.462646 329.406494,324.580078 329.302948,325.810760 
	C328.983368,329.609741 329.177582,333.451904 329.175812,338.195862 
M210.821472,332.833984 
	C210.128159,331.379333 209.434830,329.924713 208.741501,328.470062 
	C207.910416,329.849304 206.577393,331.153992 206.359024,332.624237 
	C205.975098,335.209045 206.076233,337.918304 206.383896,340.527161 
	C206.503754,341.543610 207.731949,342.429382 208.455276,343.374664 
	C209.216064,342.470032 210.479645,341.643921 210.635681,340.644867 
	C210.989014,338.382568 210.796310,336.034973 210.821472,332.833984 
M351.614288,261.223816 
	C348.927246,260.095245 347.199219,261.004303 347.354767,263.878235 
	C347.406403,264.831970 349.298004,266.545685 350.166351,266.438385 
	C353.057190,266.081238 353.429199,264.091064 351.614288,261.223816 
M212.487976,190.503632 
	C212.487976,190.503632 212.514465,190.504456 212.487976,190.503632 
z"/>
<path fill="#5C8393" opacity="1.000000" stroke="none" 
	d="
M262.004486,182.959030 
	C264.294495,184.224808 266.511139,185.661545 268.903656,186.688522 
	C270.216644,187.252151 271.826233,187.124878 273.302063,187.309143 
	C273.091614,185.644287 273.273102,183.780594 272.558350,182.371552 
	C271.869385,181.013245 270.254791,180.124466 269.108887,178.432678 
	C269.444061,176.885315 269.717133,175.934677 269.990173,174.984039 
	C275.299866,173.994644 272.897522,170.639175 272.375732,167.462814 
	C278.946747,167.083694 273.291901,163.653076 273.997375,162.014542 
	C278.215302,162.764206 279.495941,165.008667 279.127594,169.437378 
	C278.305359,179.322525 278.110138,189.263977 277.806030,199.186996 
	C277.455475,210.624527 277.157776,222.066193 277.078705,233.507736 
	C277.060028,236.213821 278.006561,238.926559 278.716248,242.753311 
	C276.716919,241.768265 275.519440,241.178268 274.319031,240.045288 
	C273.829651,236.539230 273.343109,233.576157 272.856598,230.613098 
	C275.101410,226.655960 274.990082,223.045853 271.124573,219.213074 
	C271.007660,217.230286 271.054413,215.998962 271.101135,214.767654 
	C274.614197,212.949509 275.103210,210.643600 272.390900,208.142822 
	C271.057251,206.913208 269.524048,205.899979 268.243744,204.431427 
	C269.232422,203.177917 270.058502,202.281784 270.884583,201.385651 
	C274.858398,198.965714 273.361603,196.514008 270.740601,194.358765 
	C267.421051,191.629120 263.913300,189.128387 260.333282,186.009644 
	C260.788086,184.646576 261.396271,183.802795 262.004486,182.959030 
z"/>
<path fill="#559CA9" opacity="1.000000" stroke="none" 
	d="
M339.240417,291.660492 
	C333.059692,288.816467 327.483826,291.562195 325.845520,297.625366 
	C325.455872,299.067383 324.177948,300.269348 322.243835,301.068268 
	C322.243835,295.548981 322.116516,290.025818 322.285583,284.511719 
	C322.412781,280.362885 322.586548,276.157410 323.413788,272.115112 
	C323.771210,270.368500 325.578918,268.488068 327.227875,267.634430 
	C327.953552,267.258759 330.383301,268.986664 331.256165,270.285767 
	C335.431458,276.499817 339.455811,282.824799 343.262573,289.270538 
	C344.286133,291.003662 344.357666,293.299042 344.866211,295.336334 
	C343.072693,294.206177 341.279205,293.076019 339.240417,291.660492 
M333.936829,286.632202 
	C334.884399,283.096771 331.823547,277.322632 326.964722,274.569397 
	C326.964722,277.447693 326.978210,279.870300 326.962006,282.292694 
	C326.921997,288.276245 327.385773,288.626434 333.936829,286.632202 
z"/>
<path fill="#D1D1D1" opacity="1.000000" stroke="none" 
	d="
M366.337036,343.200989 
	C365.704254,340.588348 365.704346,338.058136 364.973297,335.760529 
	C364.524475,334.350067 362.956482,333.295746 361.891022,332.081482 
	C360.866974,333.342743 359.419434,334.460297 358.930023,335.902954 
	C358.364960,337.568451 358.820251,339.554688 358.475220,341.332275 
	C358.327576,342.092804 357.087463,343.329407 356.675049,343.209564 
	C355.769958,342.946594 354.651886,342.085907 354.392273,341.234131 
	C353.969604,339.847137 354.529480,338.127197 354.007904,336.812195 
	C353.321869,335.082458 351.990082,333.608856 350.935974,332.025116 
	C349.865784,333.541382 348.635834,334.975311 347.794067,336.609253 
	C347.384705,337.403870 348.011139,338.720642 347.620026,339.538757 
	C346.940765,340.959595 345.835571,342.176849 344.908936,343.479462 
	C344.052216,342.098846 342.895020,340.811829 342.427490,339.310059 
	C342.001373,337.941345 342.308533,336.339600 342.318176,334.840759 
	C342.358154,328.608673 343.121246,327.670135 349.465393,327.327850 
	C353.897552,327.088684 358.354401,327.163452 362.795685,327.276703 
	C367.022095,327.384460 369.452332,330.117310 369.492096,333.929688 
	C369.525543,337.141998 372.387604,341.729431 366.337036,343.200989 
z"/>
<path fill="#708997" opacity="1.000000" stroke="none" 
	d="
M284.227234,176.121796 
	C285.935974,169.957458 290.470062,166.706711 296.050354,164.376526 
	C302.392365,161.728226 308.798248,159.164810 314.901459,156.029312 
	C322.945374,151.896790 330.822235,147.410034 338.568726,142.740189 
	C342.204651,140.548309 345.322327,137.509750 348.774231,134.991089 
	C349.751709,134.277878 351.079529,134.044830 352.246674,133.591568 
	C352.553619,134.876602 352.860565,136.161652 352.679199,137.554245 
	C346.943665,136.629349 346.875000,141.552002 344.761108,144.122742 
	C342.186035,145.624451 339.610992,147.126144 336.521393,148.911438 
	C334.669403,150.134125 333.332001,151.073196 331.994568,152.012283 
	C327.857422,151.437210 326.251007,154.020691 324.863220,157.482300 
	C319.940277,154.812302 321.776306,160.164597 320.073547,160.993256 
	C318.333282,161.286423 316.592987,161.579605 314.293121,161.840881 
	C312.220428,162.852631 310.707336,163.896271 309.194244,164.939911 
	C307.233978,165.832062 305.273682,166.724213 302.767944,167.537323 
	C300.156433,167.345474 298.090332,167.232651 295.691223,167.185425 
	C292.600525,169.516068 289.842834,171.781128 286.888733,174.251526 
	C286.441772,174.963013 286.191193,175.469162 285.654144,175.995331 
	C284.987518,176.050842 284.607391,176.086319 284.227234,176.121796 
z"/>
<path fill="#D1D1D1" opacity="1.000000" stroke="none" 
	d="
M220.516907,339.144043 
	C219.380188,328.593994 223.957825,324.872314 233.580963,328.158966 
	C234.670395,328.531036 236.288910,329.678406 236.304611,330.492462 
	C236.406158,335.756805 236.850403,341.183075 235.761414,346.250916 
	C234.814621,350.656860 230.385910,351.303314 226.361694,350.469910 
	C222.957535,349.764954 220.685318,347.951202 221.573746,343.772400 
	C221.847427,342.485077 220.982330,340.955627 220.516907,339.144043 
M229.741302,339.133728 
	C230.302246,336.988647 230.863190,334.843567 231.424118,332.698486 
	C229.633499,332.284882 227.619827,331.195862 226.128464,331.688385 
	C225.084274,332.033173 224.187500,334.552826 224.226791,336.075287 
	C224.299438,338.890991 226.215012,340.041504 229.741302,339.133728 
M229.243958,345.918854 
	C229.413269,345.334198 229.582581,344.749542 229.751862,344.164886 
	C228.857590,344.293060 227.963303,344.421204 227.069031,344.549347 
	C227.590347,345.023376 228.111649,345.497375 229.243958,345.918854 
z"/>
<path fill="#708997" opacity="1.000000" stroke="none" 
	d="
M235.868713,124.903366 
	C237.711517,126.587303 239.554321,128.271225 241.794495,130.397644 
	C243.889481,134.521744 246.528717,132.554184 248.938263,131.964615 
	C248.873047,135.741470 251.458237,136.090836 254.736847,136.484329 
	C256.719757,137.530258 258.264648,138.201691 259.809570,138.873138 
	C260.711212,140.154739 261.612823,141.436356 262.812195,143.307068 
	C265.307526,144.937897 267.505066,145.979645 269.702606,147.021378 
	C271.904663,147.758881 274.106689,148.496368 276.575439,149.534180 
	C277.491455,151.316116 278.060577,152.839767 278.809692,154.269043 
	C279.820160,156.196854 280.969147,158.052032 282.058685,159.938385 
	C278.419739,157.464249 274.887756,154.812057 271.121521,152.549820 
	C260.392517,146.105240 250.613113,138.017059 238.108429,134.657150 
	C232.788971,133.227844 227.793228,130.436615 222.834778,127.903381 
	C221.020660,126.976555 218.917114,125.088348 222.676392,123.391739 
	C225.825500,127.760101 229.501526,128.109894 235.868713,124.903366 
z"/>
<path fill="#D1D1D1" opacity="1.000000" stroke="none" 
	d="
M406.060944,341.751923 
	C405.422363,339.234924 404.443146,336.747437 404.222107,334.194305 
	C403.857574,329.983154 406.305206,327.805939 410.352875,327.279114 
	C418.292206,326.245758 420.741577,328.377411 420.731812,336.300110 
	C420.729340,338.286652 420.629242,340.278259 420.736481,342.258728 
	C420.979736,346.752533 418.970245,349.667938 414.597168,350.517731 
	C409.956085,351.419586 406.467163,349.849518 405.461060,344.547882 
	C407.477264,344.790649 409.101532,345.794769 410.797729,345.936249 
	C412.491638,346.077515 414.257629,345.355225 415.992004,345.011505 
	C415.863525,344.494110 415.735077,343.976715 415.606598,343.459290 
	C412.424713,342.890167 409.242828,342.321045 406.060944,341.751923 
M408.161285,334.613373 
	C409.402557,336.240356 410.424469,338.180695 412.021881,339.299042 
	C412.487030,339.624664 415.369446,337.836212 415.743652,336.594757 
	C416.157898,335.220490 414.966827,333.362366 414.474823,331.714905 
	C412.408936,332.429077 410.343048,333.143250 408.161285,334.613373 
z"/>
<path fill="#5AA0AC" opacity="1.000000" stroke="none" 
	d="
M269.422302,284.591125 
	C270.343079,287.796753 271.356903,290.743927 271.468811,293.724915 
	C271.584442,296.806396 270.823944,299.920715 270.505127,302.540710 
	C267.043152,302.970215 263.928223,303.376953 260.808105,303.738922 
	C256.317657,304.259888 252.989182,302.249420 252.356339,298.671173 
	C251.748444,295.234009 254.391785,292.147797 258.822449,291.266235 
	C261.334473,290.766418 263.878845,290.429138 266.730469,289.966431 
	C264.821381,283.361481 258.425293,287.931946 255.816360,284.416931 
	C258.711151,281.192474 263.005676,281.196960 269.422302,284.591125 
M258.644409,295.003357 
	C258.444855,296.576782 258.245270,298.150238 258.045685,299.723663 
	C260.381165,299.756531 262.883850,300.295807 264.980072,299.603851 
	C265.994843,299.268860 266.246826,296.623199 266.844147,295.023682 
	C265.125763,294.651062 263.420898,294.163910 261.682739,293.958893 
	C260.925171,293.869537 260.099335,294.358673 258.644409,295.003357 
z"/>
<path fill="#5AA0AC" opacity="1.000000" stroke="none" 
	d="
M237.419571,296.283691 
	C240.118073,297.768982 240.385605,299.037598 237.407227,299.726562 
	C233.430023,300.646545 226.242554,297.216125 224.584076,293.749298 
	C222.501160,289.395203 224.371307,281.722809 228.228607,278.797394 
	C231.627365,276.219757 238.903397,276.321075 242.157181,279.587952 
	C243.526382,280.962646 244.556870,283.834564 244.078079,285.565918 
	C243.592682,287.321045 241.249069,289.263367 239.364883,289.749268 
	C237.119202,290.328430 234.499557,289.311127 232.035751,289.254639 
	C230.864212,289.227814 229.678391,289.824860 228.499023,290.139282 
	C229.017578,291.424011 229.185944,293.349548 230.125900,293.863190 
	C232.231277,295.013733 234.720551,295.461792 237.419571,296.283691 
M238.501358,286.528473 
	C238.957535,285.190582 239.413712,283.852692 239.869904,282.514771 
	C237.502930,281.890472 235.138367,280.847565 232.767822,280.833832 
	C231.719254,280.827789 230.658600,282.906342 229.603455,284.038574 
	C231.031891,284.918335 232.373444,286.035950 233.917267,286.599731 
	C235.073624,287.022034 236.490433,286.731171 238.501358,286.528473 
z"/>
<path fill="#D1D1D1" opacity="1.000000" stroke="none" 
	d="
M154.259705,338.453613 
	C154.005661,329.153076 157.393875,325.714844 164.668823,327.436829 
	C169.381073,328.552246 171.277771,332.888519 168.836823,337.026428 
	C168.505127,337.588715 167.582489,338.118103 167.650024,338.550934 
	C168.257416,342.444611 166.642578,344.016937 162.765533,344.007538 
	C158.799545,343.997925 155.396667,343.430878 154.259705,338.453613 
M159.618011,338.505554 
	C159.618011,338.505554 159.502502,338.574463 159.618011,338.505554 
M164.485367,338.579102 
	C164.485367,338.579102 164.416367,338.465790 164.485367,338.579102 
z"/>
<path fill="#D1D1D1" opacity="1.000000" stroke="none" 
	d="
M443.990662,337.409088 
	C443.268311,337.755981 442.504761,337.924255 442.458405,338.209198 
	C442.176666,339.941315 442.081024,343.220245 441.881897,343.223206 
	C438.530853,343.273468 434.819489,343.719238 431.912201,342.436310 
	C428.653625,340.998413 428.415466,333.457306 430.809113,330.225616 
	C433.183319,327.020142 439.356598,325.894043 442.464966,328.459839 
	C445.250427,330.759186 447.337982,333.597534 443.990662,337.409088 
M436.026367,338.529480 
	C436.586548,338.899719 437.146759,339.269958 437.706940,339.640198 
	C437.862549,339.260345 438.018158,338.880524 438.173767,338.500671 
	C437.580017,338.380676 436.986298,338.260712 436.026367,338.529480 
z"/>
<path fill="#D1D1D1" opacity="1.000000" stroke="none" 
	d="
M395.206665,333.022034 
	C395.335175,333.581787 395.379303,333.742798 395.395325,333.906555 
	C396.297211,343.115997 391.097321,346.957092 382.303101,343.490540 
	C381.302521,343.096161 380.328125,342.241577 379.710266,341.346069 
	C378.053894,338.945374 381.055603,329.364532 383.880310,327.646423 
	C387.344238,325.539520 393.031738,328.061005 395.206665,333.022034 
M388.153259,335.260803 
	C386.552307,335.995270 384.951385,336.729736 383.350433,337.464203 
	C383.828308,338.226562 384.298798,339.631561 384.785370,339.637146 
	C386.638123,339.658447 388.496124,339.228119 390.352142,338.966522 
	C389.872711,337.786804 389.393311,336.607117 388.153259,335.260803 
z"/>
<path fill="#D1D1D1" opacity="1.000000" stroke="none" 
	d="
M258.987274,340.047974 
	C259.125397,340.673431 259.578674,341.468536 259.348694,341.895905 
	C258.159729,344.105164 251.280289,344.799042 248.409775,343.095825 
	C245.317566,341.261047 244.146790,335.393494 246.072754,331.383240 
	C247.872879,327.635010 253.054962,325.947113 257.236481,327.949371 
	C261.005463,329.754120 262.016479,332.673981 260.059418,336.471161 
	C259.989929,336.605927 259.811432,336.684540 258.914917,336.912323 
	C255.615555,337.171082 253.085068,337.306885 250.554565,337.442657 
	C250.561676,338.141754 250.568787,338.840881 250.575912,339.539978 
	C253.379700,339.709320 256.183472,339.878662 258.987274,340.047974 
z"/>
<path fill="#D1D1D1" opacity="1.000000" stroke="none" 
	d="
M455.180695,335.671753 
	C455.719086,333.278717 455.561981,329.487732 456.947876,328.798309 
	C459.446136,327.555481 463.081268,327.417175 465.848999,328.201965 
	C469.147675,329.137268 469.918060,340.431885 467.215271,342.735840 
	C463.486938,345.914093 456.014923,343.661346 455.528381,338.701050 
	C458.574249,338.845825 461.255280,339.391907 463.936340,339.937988 
	C464.046295,339.362366 464.156281,338.786774 464.266266,338.211151 
	C461.237732,337.364685 458.209229,336.518219 455.180695,335.671753 
M461.175049,332.803101 
	C461.434540,332.744171 461.694061,332.685242 461.953552,332.626312 
	C461.901276,332.499451 461.823547,332.258148 461.800659,332.263214 
	C461.541443,332.320923 461.290649,332.416351 461.175049,332.803101 
z"/>
<path fill="#D1D1D1" opacity="1.000000" stroke="none" 
	d="
M281.675171,333.681976 
	C276.759979,331.016205 275.395844,331.886719 274.853760,336.911621 
	C274.610382,339.167572 276.670135,342.791168 272.462555,343.101776 
	C271.888458,343.144104 270.438416,338.852997 270.347076,336.530792 
	C270.037140,328.651337 273.611481,325.534058 280.855560,327.608582 
	C283.040497,328.234283 285.767426,330.501678 286.304932,332.531189 
	C287.146210,335.707550 286.380768,339.324768 286.128479,342.742920 
	C286.110596,342.985107 284.492401,343.507477 284.019897,343.225861 
	C283.286469,342.788757 282.560242,341.825195 282.428986,340.990723 
	C282.070160,338.709778 282.023834,336.379639 281.675171,333.681976 
z"/>
<path fill="#D1D1D1" opacity="1.000000" stroke="none" 
	d="
M124.816956,331.460022 
	C125.197876,334.794312 125.636223,337.759094 125.553383,340.709290 
	C125.527328,341.636871 124.101761,342.525177 123.316750,343.431458 
	C122.613510,342.498199 121.566101,341.655304 121.291481,340.609467 
	C120.922516,339.204437 121.609642,337.414825 121.009018,336.204285 
	C120.207794,334.589508 118.604988,333.372467 117.346466,331.984589 
	C116.188385,333.304199 114.632095,334.456818 113.988312,335.992126 
	C113.388107,337.423462 113.982018,339.313416 113.615265,340.900970 
	C113.403389,341.818115 112.330757,342.536407 111.645538,343.344177 
	C110.886253,342.632629 109.519966,341.960449 109.470848,341.202850 
	C109.235229,337.569305 109.025734,333.872833 109.459358,330.277405 
	C109.779289,327.624756 117.943314,326.160217 121.514374,328.071899 
	C122.750603,328.733704 123.630379,330.061371 124.816956,331.460022 
z"/>
<path fill="#559CA9" opacity="1.000000" stroke="none" 
	d="
M283.111267,273.016968 
	C285.306458,270.912018 286.842102,271.312164 287.470062,274.175171 
	C287.958679,276.402802 287.846436,278.775116 287.888000,281.085114 
	C287.956482,284.892334 287.635071,288.732605 288.032104,292.500580 
	C288.436371,296.336670 289.509949,300.102234 290.338013,304.130127 
	C286.811737,305.548645 284.327667,304.490173 283.747559,299.680176 
	C283.116577,294.448334 283.298523,289.115753 283.178497,283.825928 
	C283.099640,280.350281 283.113708,276.872498 283.111267,273.016968 
z"/>
<path fill="#5CBAC6" opacity="1.000000" stroke="none" 
	d="
M289.634888,204.211792 
	C288.882141,217.136749 288.129425,230.061707 287.376678,242.986679 
	C286.672485,242.976288 285.968323,242.965897 285.264130,242.955505 
	C285.264130,230.627914 285.264130,218.300339 285.619019,205.487808 
	C287.194244,204.739182 288.414551,204.475479 289.634888,204.211792 
z"/>
<path fill="#62B0BD" opacity="1.000000" stroke="none" 
	d="
M250.825317,154.292145 
	C242.593140,149.021103 234.346512,143.772415 226.139236,138.462891 
	C224.148346,137.174927 222.287140,135.686478 220.366302,134.290222 
	C220.706223,133.737381 221.046158,133.184540 221.386093,132.631699 
	C230.750580,137.932785 240.115082,143.233887 249.806564,149.133148 
	C250.364136,151.251602 250.594727,152.771881 250.825317,154.292145 
z"/>
<path fill="#D1D1D1" opacity="1.000000" stroke="none" 
	d="
M306.332916,341.769196 
	C303.393585,345.286316 300.377289,343.224609 299.400635,340.947937 
	C297.751923,337.104645 297.215088,332.705322 296.758148,328.480591 
	C296.629700,327.293335 298.198761,325.173035 299.386230,324.821411 
	C300.402374,324.520508 302.073273,326.023804 303.290558,326.945679 
	C304.169922,327.611633 304.780426,328.632629 305.735535,329.760712 
	C300.680511,334.036285 302.849640,337.800079 306.332916,341.769196 
z"/>
<path fill="#559CA9" opacity="1.000000" stroke="none" 
	d="
M218.327209,274.486298 
	C210.226120,273.533264 207.456665,278.626190 205.230240,284.851044 
	C204.698471,286.337799 202.520157,287.235596 201.099167,288.404266 
	C200.631104,288.003784 200.163040,287.603302 199.694977,287.202820 
	C202.206345,280.968933 204.717697,274.735016 206.969284,269.145935 
	C210.417770,270.031708 213.152481,270.529297 215.715057,271.487335 
	C216.829666,271.904053 217.590591,273.266785 218.327209,274.486298 
z"/>
<path fill="#D1D1D1" opacity="1.000000" stroke="none" 
	d="
M194.286346,343.372314 
	C193.594467,336.675171 193.195160,330.080048 193.052231,323.479431 
	C193.041031,322.961792 194.791702,322.076660 195.774445,321.997864 
	C196.311859,321.954803 197.458023,323.234314 197.473007,323.935699 
	C197.596909,329.733582 197.623383,335.540100 197.377945,341.331268 
	C197.346115,342.082428 195.597504,342.760864 194.286346,343.372314 
z"/>
<path fill="#4E8193" opacity="1.000000" stroke="none" 
	d="
M287.085144,174.046173 
	C289.842834,171.781128 292.600525,169.516068 295.648499,167.460129 
	C296.620056,169.115677 297.301331,170.562088 297.982635,172.008514 
	C293.038513,172.309082 290.679688,174.767838 290.763672,179.885666 
	C290.830597,183.964264 290.316589,188.052368 289.685608,192.621109 
	C287.581543,193.064423 285.852386,193.022903 284.123199,192.981384 
	C284.111450,187.663330 284.099701,182.345291 284.157593,176.574524 
	C284.607391,176.086319 284.987518,176.050842 285.667786,176.446625 
	C286.171814,179.686401 286.375763,182.494904 286.579712,185.303391 
	C287.223145,185.236801 287.866547,185.170227 288.509979,185.103638 
	C288.690491,181.375183 290.674042,177.529449 287.085144,174.046173 
z"/>
<path fill="#D1D1D1" opacity="1.000000" stroke="none" 
	d="
M143.525330,343.321228 
	C138.715866,343.303375 136.756332,340.539490 136.316132,336.485626 
	C135.979568,333.386230 135.670822,330.221680 135.991440,327.153168 
	C136.080750,326.298462 139.440384,324.867340 139.620331,325.085541 
	C141.053589,326.823639 143.484283,330.129333 143.010834,330.667206 
	C139.579849,334.565033 140.426605,337.323364 144.173309,340.171875 
	C144.588928,340.487854 143.975433,342.157440 143.525330,343.321228 
z"/>
<path fill="#5CBAC6" opacity="1.000000" stroke="none" 
	d="
M231.044510,202.786041 
	C236.664322,206.223740 242.284149,209.661438 247.904572,213.717773 
	C248.581512,216.648148 249.257828,218.959869 249.934128,221.271591 
	C243.727219,216.415848 237.520325,211.560089 231.134460,206.020416 
	C230.985168,204.486343 231.014832,203.636200 231.044510,202.786041 
z"/>
<path fill="#559CA9" opacity="1.000000" stroke="none" 
	d="
M354.724548,277.382263 
	C352.982544,275.506500 351.383759,273.984070 349.546814,272.234802 
	C351.232239,269.350677 354.234497,267.606934 356.301361,270.840485 
	C359.594116,275.991760 361.585327,281.975006 364.300903,287.991821 
	C358.975677,288.128754 358.975677,288.128754 354.724548,277.382263 
z"/>
<path fill="#5CBAC6" opacity="1.000000" stroke="none" 
	d="
M257.653168,108.734459 
	C261.547028,107.029442 265.392242,105.199188 269.350952,103.661156 
	C272.241669,102.538071 275.281860,101.799751 278.510712,101.175125 
	C278.497253,102.589607 278.228516,103.718880 277.959778,104.848145 
	C272.268127,107.586601 266.576508,110.325050 260.359985,112.876862 
	C259.107788,111.371643 258.380493,110.053055 257.653168,108.734459 
z"/>
<path fill="#C8CACB" opacity="1.000000" stroke="none" 
	d="
M179.112732,338.686951 
	C179.120743,333.773285 178.979233,329.308105 179.251465,324.868317 
	C179.320023,323.750610 180.713501,322.714142 181.498108,321.640320 
	C182.280243,322.717468 183.675568,323.760345 183.738098,324.877747 
	C184.005127,329.649567 184.049500,334.452545 183.794037,339.223755 
	C183.714844,340.702820 182.431351,342.117462 181.699234,343.561584 
	C180.838333,342.089355 179.977417,340.617126 179.112732,338.686951 
z"/>
<path fill="#62B0BD" opacity="1.000000" stroke="none" 
	d="
M278.914062,125.487244 
	C287.370575,121.401764 295.812164,117.284889 304.293396,113.251381 
	C306.604950,112.152046 309.035767,111.303558 311.411865,110.339935 
	C311.582153,110.712227 311.752441,111.084518 311.922729,111.456802 
	C301.160278,117.170868 290.397797,122.884926 279.301392,128.265839 
	C278.949677,127.117554 278.931854,126.302406 278.914062,125.487244 
z"/>
<path fill="#62B0BD" opacity="1.000000" stroke="none" 
	d="
M314.835327,142.876831 
	C323.145020,138.472336 331.454742,134.067841 339.764435,129.663330 
	C340.191559,130.374390 340.618652,131.085449 341.045776,131.796509 
	C334.291504,136.687805 326.949188,140.717178 319.151123,144.779846 
	C318.416962,144.768936 318.188385,144.859512 318.002197,145.073914 
	C318.002197,145.073914 318.010254,145.011688 317.694031,145.021301 
	C316.920624,145.018723 316.463470,145.006531 315.915558,144.702301 
	C315.494965,143.899124 315.165161,143.387985 314.835327,142.876831 
z"/>
<path fill="#D1D1D1" opacity="1.000000" stroke="none" 
	d="
M329.174011,337.736572 
	C329.177582,333.451904 328.983368,329.609741 329.302948,325.810760 
	C329.406494,324.580078 330.856750,323.462646 331.691040,322.293427 
	C332.397369,323.428253 333.640991,324.530121 333.713043,325.703888 
	C333.967316,329.846649 334.058411,334.033844 333.715393,338.162964 
	C333.564728,339.976562 332.219269,341.690918 331.416290,343.450317 
	C330.669464,341.698822 329.922638,339.947357 329.174011,337.736572 
z"/>
<path fill="#62B0BD" opacity="1.000000" stroke="none" 
	d="
M311.785431,187.984406 
	C310.699615,200.631409 309.613770,213.278412 308.527954,225.925415 
	C308.040283,225.896225 307.552612,225.867035 307.064941,225.837830 
	C307.575104,213.457291 308.085266,201.076752 309.122131,188.328613 
	C310.361023,187.968811 311.073212,187.976608 311.785431,187.984406 
z"/>
<path fill="#6CBBC5" opacity="1.000000" stroke="none" 
	d="
M345.055206,188.976639 
	C345.076477,189.952652 345.266296,190.959839 345.092468,191.899780 
	C343.626251,199.829132 342.093506,207.746201 340.580750,215.666946 
	C340.061493,215.623596 339.542236,215.580231 339.022980,215.536865 
	C339.604584,205.965195 340.186157,196.393539 341.128967,186.723602 
	C342.678528,187.409088 343.866852,188.192871 345.055206,188.976639 
z"/>
<path fill="#346B80" opacity="1.000000" stroke="none" 
	d="
M236.143707,124.767151 
	C229.501526,128.109894 225.825500,127.760101 222.978912,123.310097 
	C226.352448,121.324455 229.805817,119.713150 233.871674,118.275879 
	C235.996613,119.981743 237.509064,121.513573 239.021500,123.045403 
	C238.153900,123.573914 237.286316,124.102417 236.143707,124.767151 
z"/>
<path fill="#62B0BD" opacity="1.000000" stroke="none" 
	d="
M330.786438,192.877350 
	C330.947083,185.178253 331.107727,177.479141 331.653198,169.344193 
	C332.952332,169.218338 333.866638,169.528336 334.780975,169.838318 
	C333.761810,181.549622 332.742645,193.260925 331.425293,205.436005 
	C330.783752,205.912872 330.440399,205.925949 330.097046,205.939026 
	C330.075195,203.590546 330.053375,201.242050 330.222565,198.128998 
	C330.537872,195.868744 330.662140,194.373047 330.786438,192.877350 
z"/>
<path fill="#62B0BD" opacity="1.000000" stroke="none" 
	d="
M322.082733,184.967056 
	C321.530365,192.888214 321.014709,200.812195 320.410461,208.729385 
	C320.100006,212.796906 319.631470,216.852371 319.217804,221.082825 
	C319.217804,209.192703 319.217804,197.539001 319.619232,185.422821 
	C320.708008,184.962585 321.395386,184.964813 322.082733,184.967056 
z"/>
<path fill="#457D8E" opacity="1.000000" stroke="none" 
	d="
M282.308044,160.157837 
	C280.969147,158.052032 279.820160,156.196854 278.809692,154.269043 
	C278.060577,152.839767 277.491455,151.316116 276.970520,149.574448 
	C280.150482,147.850922 283.202118,146.387466 286.755920,145.169464 
	C287.516388,146.281891 287.774658,147.148865 288.032898,148.015839 
	C285.778503,149.521576 283.524139,151.027313 281.269775,152.533035 
	C281.207397,153.108841 281.145020,153.684647 281.082642,154.260437 
	C283.454803,154.878067 285.826965,155.495697 288.488159,156.450500 
	C288.182007,158.546143 287.586884,160.304626 286.987030,162.335876 
	C286.980560,162.790512 286.978790,162.972366 286.977020,163.154236 
	C285.503815,162.228592 284.030579,161.302948 282.308044,160.157837 
z"/>
<path fill="#62B0BD" opacity="1.000000" stroke="none" 
	d="
M320.963928,130.984131 
	C313.863647,134.881958 306.763397,138.779800 299.178223,142.520294 
	C298.156250,141.588226 297.619202,140.813522 297.082123,140.038818 
	C304.455658,136.702301 311.829193,133.365799 319.756897,130.136078 
	C320.550323,130.470932 320.767914,130.718018 320.963928,130.984131 
z"/>
<path fill="#62B0BD" opacity="1.000000" stroke="none" 
	d="
M266.068176,119.110062 
	C273.516327,115.576683 280.964478,112.043289 288.412628,108.509903 
	C288.742981,109.199150 289.073334,109.888397 289.403687,110.577644 
	C282.468140,114.288467 275.532593,117.999290 268.116882,121.553444 
	C267.113861,120.634537 266.591034,119.872299 266.068176,119.110062 
z"/>
<path fill="#5CBAC6" opacity="1.000000" stroke="none" 
	d="
M345.082489,188.579132 
	C343.866852,188.192871 342.678528,187.409088 341.332245,186.376877 
	C341.248535,185.551987 341.322754,184.975525 341.660278,184.068054 
	C342.118469,183.464340 342.078613,183.213577 341.804047,182.984726 
	C341.804047,182.984726 341.769623,182.496460 341.901367,182.141556 
	C342.168884,181.482697 342.104858,181.218170 341.840973,180.993088 
	C341.840973,180.993088 341.821228,180.503159 341.944489,180.145111 
	C342.195709,179.485245 342.133789,179.220016 341.881989,178.991364 
	C341.911224,177.597183 341.940491,176.203018 342.250153,174.162659 
	C344.353638,172.671234 346.176758,171.825974 347.999817,170.980713 
	C347.036469,176.714355 346.073120,182.447998 345.082489,188.579132 
z"/>
<path fill="#438595" opacity="1.000000" stroke="none" 
	d="
M334.839050,169.432983 
	C333.866638,169.528336 332.952332,169.218338 331.767120,168.951447 
	C331.663055,163.644592 331.829895,158.294647 331.995667,152.478485 
	C333.332001,151.073196 334.669403,150.134125 336.311951,149.209564 
	C336.043762,155.825272 335.470428,162.426453 334.839050,169.432983 
z"/>
<path fill="#D1D1D1" opacity="1.000000" stroke="none" 
	d="
M210.823563,333.278015 
	C210.796310,336.034973 210.989014,338.382568 210.635681,340.644867 
	C210.479645,341.643921 209.216064,342.470032 208.455292,343.374664 
	C207.731949,342.429382 206.503754,341.543610 206.383896,340.527161 
	C206.076233,337.918304 205.975098,335.209045 206.359024,332.624237 
	C206.577393,331.153992 207.910416,329.849304 208.741516,328.470062 
	C209.434830,329.924713 210.128159,331.379333 210.823563,333.278015 
z"/>
<path fill="#62B0BD" opacity="1.000000" stroke="none" 
	d="
M250.022278,204.943787 
	C243.312653,200.411575 236.603027,195.879364 229.893387,191.347168 
	C230.237289,190.765015 230.581177,190.182846 230.925079,189.600693 
	C237.309937,193.262238 243.838898,196.657455 249.880646,201.959351 
	C250.057159,203.385941 250.039719,204.164856 250.022278,204.943787 
z"/>
<path fill="#6CBBC5" opacity="1.000000" stroke="none" 
	d="
M278.313904,104.792007 
	C278.228516,103.718880 278.497253,102.589607 278.899231,101.126114 
	C285.188019,98.242195 291.343597,95.692505 297.499207,93.142822 
	C297.768677,93.734512 298.038147,94.326210 298.307617,94.917900 
	C291.761078,98.190559 285.214569,101.463219 278.313904,104.792007 
z"/>
<path fill="#438595" opacity="1.000000" stroke="none" 
	d="
M307.150787,152.124496 
	C303.657898,154.333542 300.165009,156.542603 296.416870,158.522614 
	C298.518066,152.504074 292.781006,156.883240 292.026520,155.002350 
	C295.041718,153.320267 298.056946,151.638184 301.812500,149.928375 
	C304.085510,150.641922 305.618134,151.383209 307.150787,152.124496 
z"/>
<path fill="#397588" opacity="1.000000" stroke="none" 
	d="
M272.570435,230.399368 
	C273.343109,233.576157 273.829651,236.539230 274.122986,239.798157 
	C271.753998,238.571426 269.578156,237.048828 267.116150,234.887054 
	C267.066559,231.954544 267.303131,229.661240 267.539703,227.367920 
	C269.121216,228.307159 270.702759,229.246399 272.570435,230.399368 
z"/>
<path fill="#62B0BD" opacity="1.000000" stroke="none" 
	d="
M290.995239,130.943665 
	C297.433105,127.847404 303.871002,124.751152 310.308899,121.654892 
	C310.626282,122.297401 310.943665,122.939911 311.261047,123.582420 
	C304.762512,127.066307 298.264008,130.550186 291.395905,133.696060 
	C291.015961,132.553253 291.005585,131.748444 290.995239,130.943665 
z"/>
<path fill="#4E9EAD" opacity="1.000000" stroke="none" 
	d="
M348.166229,170.648346 
	C346.176758,171.825974 344.353638,172.671234 342.284698,173.745605 
	C342.261230,170.228668 342.483612,166.482620 343.194733,162.489258 
	C345.657135,162.120239 347.630798,161.998535 349.604462,161.876831 
	C349.180511,164.689880 348.756561,167.502914 348.166229,170.648346 
z"/>
<path fill="#4E9EAD" opacity="1.000000" stroke="none" 
	d="
M307.489197,152.045776 
	C305.618134,151.383209 304.085510,150.641922 302.163452,149.852219 
	C305.894379,147.548965 310.014709,145.294144 314.485199,142.958069 
	C315.165161,143.387985 315.494965,143.899124 315.912079,144.705948 
	C315.999359,145.001617 315.994812,145.010757 315.909485,145.125626 
	C315.724884,145.532242 315.786896,145.791931 316.051392,146.061218 
	C316.092560,146.102890 316.173096,146.187973 316.173096,146.187973 
	C313.391266,148.114334 310.609406,150.040695 307.489197,152.045776 
z"/>
<path fill="#62B0BD" opacity="1.000000" stroke="none" 
	d="
M249.939514,179.035431 
	C244.433044,175.188309 238.926575,171.341171 233.369843,167.038483 
	C233.563232,166.343689 233.806900,166.104477 234.050568,165.865234 
	C239.529236,169.128128 245.007904,172.391037 250.710449,176.205261 
	C250.602737,177.516190 250.271118,178.275818 249.939514,179.035431 
z"/>
<path fill="#438595" opacity="1.000000" stroke="none" 
	d="
M349.700500,161.488556 
	C347.630798,161.998535 345.657135,162.120239 343.374817,162.128601 
	C343.239319,159.896240 343.412415,157.777237 344.104980,155.245148 
	C346.779755,153.204132 348.935059,151.576187 351.090332,149.948242 
	C350.659088,153.665588 350.227814,157.382935 349.700500,161.488556 
z"/>
<path fill="#457D8E" opacity="1.000000" stroke="none" 
	d="
M309.200073,165.402863 
	C310.707336,163.896271 312.220428,162.852631 313.998413,161.965439 
	C313.836823,166.784958 313.410370,171.448029 312.590271,176.463348 
	C311.218079,176.519974 310.239502,176.224365 309.260925,175.928772 
	C309.242584,172.574463 309.224243,169.220139 309.200073,165.402863 
z"/>
<path fill="#457D8E" opacity="1.000000" stroke="none" 
	d="
M249.255783,131.858276 
	C246.528717,132.554184 243.889481,134.521744 242.153336,130.496094 
	C246.037506,128.374802 249.960205,126.597504 254.589752,124.927536 
	C255.919037,125.781456 256.541504,126.528053 257.163940,127.274643 
	C256.715179,127.531403 256.266449,127.788162 255.265137,128.155807 
	C254.131042,128.756790 253.549515,129.246887 252.967987,129.737000 
	C251.836441,130.408646 250.704865,131.080307 249.255783,131.858276 
z"/>
<path fill="#6CBBC5" opacity="1.000000" stroke="none" 
	d="
M230.901749,202.496262 
	C231.014832,203.636200 230.985168,204.486343 230.932404,205.762177 
	C225.374588,201.717545 219.839874,197.247208 214.305161,192.776886 
	C214.740753,192.196091 215.176346,191.615311 215.611938,191.034515 
	C220.660950,194.758499 225.709961,198.482498 230.901749,202.496262 
z"/>
<path fill="#438595" opacity="1.000000" stroke="none" 
	d="
M267.995789,141.963837 
	C272.012146,139.932068 276.028473,137.900314 280.646454,136.088013 
	C281.568115,136.979889 281.888153,137.652313 282.208191,138.324738 
	C278.253143,140.568878 274.298126,142.813019 269.889069,144.990784 
	C268.955292,143.937546 268.475525,142.950699 267.995789,141.963837 
z"/>
<path fill="#438595" opacity="1.000000" stroke="none" 
	d="
M320.049652,161.454391 
	C321.776306,160.164597 319.940277,154.812302 324.660187,157.772003 
	C324.476349,162.665665 324.081268,167.357788 323.266357,172.509705 
	C321.894623,172.991241 320.942657,173.013000 319.990723,173.034760 
	C320.002411,169.328354 320.014069,165.621948 320.049652,161.454391 
z"/>
<path fill="#438595" opacity="1.000000" stroke="none" 
	d="
M267.414490,227.083450 
	C267.303131,229.661240 267.066559,231.954544 266.910645,234.630676 
	C264.822937,233.442520 262.654510,231.871521 260.239380,229.677551 
	C260.312531,226.759857 260.632385,224.465149 260.952271,222.170441 
	C263.064606,223.713287 265.176971,225.256134 267.414490,227.083450 
z"/>
<path fill="#397588" opacity="1.000000" stroke="none" 
	d="
M273.765869,161.762695 
	C273.291901,163.653076 278.946747,167.083694 272.233978,167.092743 
	C271.149048,166.736511 270.388672,166.408615 269.218231,165.662659 
	C268.127411,164.893509 267.446686,164.542404 266.765961,164.191315 
	C266.765961,164.191315 266.382599,163.994736 266.075867,163.578003 
	C265.604858,161.224915 265.440552,159.288574 265.276245,157.352219 
	C268.028961,158.738419 270.781677,160.124619 273.765869,161.762695 
z"/>
<path fill="#62B0BD" opacity="1.000000" stroke="none" 
	d="
M248.985153,165.042389 
	C243.583832,161.451828 238.182510,157.861252 232.781189,154.270676 
	C233.169754,153.641251 233.558334,153.011841 233.946915,152.382431 
	C239.179520,155.666656 244.412140,158.950882 249.895859,162.740570 
	C249.759689,163.844818 249.372421,164.443604 248.985153,165.042389 
z"/>
<path fill="#457D8E" opacity="1.000000" stroke="none" 
	d="
M260.125397,138.715515 
	C258.264648,138.201691 256.719757,137.530258 255.146240,136.512360 
	C259.127960,134.330719 263.138306,132.495514 267.550842,131.015289 
	C267.986298,132.274872 268.019531,133.179459 268.052765,134.084061 
	C265.515594,135.575333 262.978394,137.066605 260.125397,138.715515 
z"/>
<path fill="#438595" opacity="1.000000" stroke="none" 
	d="
M270.636292,201.139297 
	C270.058502,202.281784 269.232422,203.177917 268.053162,204.151703 
	C264.953705,202.303436 262.207367,200.377533 259.291321,197.888123 
	C259.432068,196.461197 259.742462,195.597778 260.052856,194.734360 
	C263.497894,196.787216 266.942963,198.840073 270.636292,201.139297 
z"/>
<path fill="#4E9EAD" opacity="1.000000" stroke="none" 
	d="
M284.144836,193.400421 
	C285.852386,193.022903 287.581543,193.064423 289.636993,193.036285 
	C289.904846,196.396332 289.846436,199.826050 289.711426,203.733795 
	C288.414551,204.475479 287.194244,204.739182 285.661072,205.024277 
	C284.954315,201.303619 284.560394,197.561539 284.144836,193.400421 
z"/>
<path fill="#4F96A5" opacity="1.000000" stroke="none" 
	d="
M240.985565,114.956825 
	C243.704651,113.910881 246.423721,112.864937 249.606293,112.093292 
	C251.389343,113.596367 252.708908,114.825134 254.028488,116.053894 
	C251.881195,117.246506 249.733902,118.439117 247.132782,119.397293 
	C244.781158,117.760849 242.883362,116.358841 240.985565,114.956825 
z"/>
<path fill="#438595" opacity="1.000000" stroke="none" 
	d="
M240.631531,115.036247 
	C242.883362,116.358841 244.781158,117.760849 246.794312,119.452751 
	C244.526321,120.824394 242.142990,121.906143 239.390564,123.016647 
	C237.509064,121.513573 235.996613,119.981743 234.241974,118.222794 
	C236.092346,117.035667 238.184921,116.075668 240.631531,115.036247 
z"/>
<path fill="#397588" opacity="1.000000" stroke="none" 
	d="
M297.983276,172.436172 
	C297.301331,170.562088 296.620056,169.115677 295.981506,167.394531 
	C298.090332,167.232651 300.156433,167.345474 302.442810,167.686218 
	C302.390350,170.972107 302.117615,174.030045 301.564484,177.600006 
	C300.201080,178.073059 299.118103,178.034119 298.035126,177.995163 
	C298.018036,176.284714 298.000946,174.574280 297.983276,172.436172 
z"/>
<path fill="#D1D1D1" opacity="1.000000" stroke="none" 
	d="
M97.024452,322.104675 
	C98.012390,323.471100 99.756981,324.787598 99.851021,326.213013 
	C100.175301,331.128662 99.923523,336.082306 99.488434,341.423706 
	C98.389961,340.342438 97.167427,338.884308 97.094566,337.370819 
	C96.850098,332.292755 97.015778,327.194946 97.024452,322.104675 
z"/>
<path fill="#5AA0AC" opacity="1.000000" stroke="none" 
	d="
M300.918671,186.884659 
	C300.593262,191.300110 300.267853,195.715576 299.534241,200.543640 
	C298.439056,200.950500 297.752045,200.944763 297.065033,200.939011 
	C297.183136,195.845642 297.301239,190.752274 297.825684,185.464569 
	C299.127563,185.808365 300.023132,186.346512 300.918671,186.884659 
z"/>
<path fill="#62B0BD" opacity="1.000000" stroke="none" 
	d="
M250.834183,192.195618 
	C246.664551,189.316528 242.494934,186.437439 238.300949,183.071655 
	C238.547333,182.311447 238.818069,182.037964 239.088806,181.764496 
	C243.699966,184.553650 248.311142,187.342819 252.772095,190.556854 
	C252.025970,191.386353 251.430069,191.790985 250.834183,192.195618 
z"/>
<path fill="#4F96A5" opacity="1.000000" stroke="none" 
	d="
M268.416168,134.035416 
	C268.019531,133.179459 267.986298,132.274872 267.925354,130.911346 
	C271.310333,128.868500 274.722992,127.284599 278.524872,125.593971 
	C278.931854,126.302406 278.949677,127.117554 278.963806,128.332336 
	C275.566589,130.483551 272.173096,132.235153 268.416168,134.035416 
z"/>
<path fill="#559CA9" opacity="1.000000" stroke="none" 
	d="
M250.149109,179.295166 
	C250.271118,178.275818 250.602737,177.516190 250.952087,176.441193 
	C254.500992,178.238968 258.032135,180.352112 261.783875,182.712143 
	C261.396271,183.802795 260.788086,184.646576 260.088867,185.792847 
	C256.784851,183.915176 253.571793,181.735031 250.149109,179.295166 
z"/>
<path fill="#4F96A5" opacity="1.000000" stroke="none" 
	d="
M257.515625,127.181808 
	C256.541504,126.528053 255.919037,125.781456 254.951385,124.874237 
	C258.188843,122.894653 261.771454,121.075706 265.711121,119.183411 
	C266.591034,119.872299 267.113861,120.634537 267.775513,121.635437 
	C264.565308,123.612389 261.216278,125.350677 257.515625,127.181808 
z"/>
<path fill="#4F96A5" opacity="1.000000" stroke="none" 
	d="
M296.719421,140.121552 
	C297.619202,140.813522 298.156250,141.588226 298.842590,142.602051 
	C295.584106,144.553558 292.176361,146.265945 288.400757,147.997101 
	C287.774658,147.148865 287.516388,146.281891 287.121033,145.100006 
	C290.108185,143.258148 293.232452,141.731201 296.719421,140.121552 
z"/>
<path fill="#346B80" opacity="1.000000" stroke="none" 
	d="
M344.800781,144.433624 
	C346.875000,141.552002 346.943665,136.629349 352.478668,137.817764 
	C352.476379,140.053085 352.186310,142.132446 351.504639,144.677017 
	C349.069397,145.424927 347.025818,145.707611 344.982239,145.990295 
	C344.934967,145.575027 344.887695,145.159760 344.800781,144.433624 
z"/>
<path fill="#346B80" opacity="1.000000" stroke="none" 
	d="
M291.717834,155.110489 
	C292.781006,156.883240 298.518066,152.504074 296.064575,158.549301 
	C293.977936,160.036880 291.988373,161.268753 289.286438,162.452408 
	C288.046631,162.290512 287.519196,162.176804 286.991730,162.063095 
	C287.586884,160.304626 288.182007,158.546143 288.896240,156.496368 
	C289.813263,155.876251 290.611237,155.547440 291.717834,155.110489 
z"/>
<path fill="#50A9B8" opacity="1.000000" stroke="none" 
	d="
M254.377411,116.016586 
	C252.708908,114.825134 251.389343,113.596367 249.994919,112.047462 
	C252.261337,110.769897 254.602600,109.812477 257.298523,108.794754 
	C258.380493,110.053055 259.107788,111.371643 259.990417,112.943283 
	C258.339294,114.123978 256.532806,115.051636 254.377411,116.016586 
z"/>
<path fill="#397588" opacity="1.000000" stroke="none" 
	d="
M344.826538,146.364899 
	C347.025818,145.707611 349.069397,145.424927 351.414307,145.062561 
	C351.569580,146.407089 351.423523,147.831268 351.183899,149.601852 
	C348.935059,151.576187 346.779755,153.204132 344.276123,154.897919 
	C344.175476,152.222321 344.423126,149.480911 344.826538,146.364899 
z"/>
<path fill="#438595" opacity="1.000000" stroke="none" 
	d="
M265.100342,157.095154 
	C265.440552,159.288574 265.604858,161.224915 265.897705,163.456940 
	C263.779510,162.441040 261.532745,161.129456 259.013489,159.238983 
	C258.530396,157.079391 258.319824,155.498703 258.109222,153.918015 
	C260.380981,154.891373 262.652710,155.864716 265.100342,157.095154 
z"/>
<path fill="#4F96A5" opacity="1.000000" stroke="none" 
	d="
M260.712067,221.934540 
	C260.632385,224.465149 260.312531,226.759857 260.049103,229.403931 
	C257.856415,228.020996 255.607269,226.288696 253.436096,224.142548 
	C253.728333,221.737396 253.942596,219.746094 254.156860,217.754791 
	C256.261871,219.069397 258.366852,220.384003 260.712067,221.934540 
z"/>
<path fill="#73A2B0" opacity="1.000000" stroke="none" 
	d="
M238.877136,181.519531 
	C238.818069,182.037964 238.547333,182.311447 238.093307,182.807312 
	C232.180969,179.266083 226.451904,175.502487 220.722855,171.738907 
	C221.056290,171.219681 221.389725,170.700470 221.723175,170.181244 
	C227.370605,173.879013 233.018036,177.576782 238.877136,181.519531 
z"/>
<path fill="#50A9B8" opacity="1.000000" stroke="none" 
	d="
M253.983521,217.482086 
	C253.942596,219.746094 253.728333,221.737396 253.253098,223.868393 
	C252.052261,223.278259 251.112396,222.548447 250.053314,221.545105 
	C249.257828,218.959869 248.581512,216.648148 248.066650,214.001709 
	C250.088806,214.847794 251.949493,216.028595 253.983521,217.482086 
z"/>
<path fill="#438595" opacity="1.000000" stroke="none" 
	d="
M269.742065,174.752472 
	C269.717133,175.934677 269.444061,176.885315 268.945618,178.146240 
	C265.670929,176.379028 262.621582,174.301529 259.322327,171.693008 
	C259.049896,170.770020 259.027374,170.378036 259.004883,169.986053 
	C262.501251,171.497681 265.997589,173.009308 269.742065,174.752472 
z"/>
<path fill="#C8CACB" opacity="1.000000" stroke="none" 
	d="
M96.711090,322.314941 
	C97.015778,327.194946 96.850098,332.292755 97.094566,337.370819 
	C97.167427,338.884308 98.389961,340.342438 99.453796,341.887756 
	C97.966583,344.747986 95.676064,343.982788 95.584282,341.376709 
	C95.363602,335.110199 96.067078,328.811157 96.711090,322.314941 
z"/>
<path fill="#4E8193" opacity="1.000000" stroke="none" 
	d="
M270.888367,214.524658 
	C271.054413,215.998962 271.007660,217.230286 270.932281,218.927094 
	C268.418823,217.765305 265.934052,216.137985 263.179993,214.001755 
	C263.251953,212.378311 263.593231,211.263763 263.934479,210.149231 
	C266.181488,211.526703 268.428528,212.904175 270.888367,214.524658 
z"/>
<path fill="#4E9EAD" opacity="1.000000" stroke="none" 
	d="
M257.965698,153.614624 
	C258.319824,155.498703 258.530396,157.079391 258.792725,159.003052 
	C256.322968,157.818161 253.801498,156.290298 251.052673,154.527283 
	C250.594727,152.771881 250.364136,151.251602 250.055740,149.357178 
	C252.592667,150.425766 255.207428,151.868500 257.965698,153.614624 
z"/>
<path fill="#5AA0AC" opacity="1.000000" stroke="none" 
	d="
M258.967407,169.633362 
	C259.027374,170.378036 259.049896,170.770020 259.085205,171.454391 
	C255.857986,169.689117 252.617996,167.631454 249.181580,165.308090 
	C249.372421,164.443604 249.759689,163.844818 250.104172,162.991577 
	C253.017578,164.918304 255.973755,167.099487 258.967407,169.633362 
z"/>
<path fill="#559CA9" opacity="1.000000" stroke="none" 
	d="
M282.574341,138.272324 
	C281.888153,137.652313 281.568115,136.979889 281.014404,136.012848 
	C283.940063,134.168198 287.099396,132.618164 290.627014,131.005890 
	C291.005585,131.748444 291.015961,132.553253 291.037720,133.762329 
	C288.346191,135.517731 285.643341,136.868820 282.574341,138.272324 
z"/>
<path fill="#4E9EAD" opacity="1.000000" stroke="none" 
	d="
M319.948303,173.475250 
	C320.942657,173.013000 321.894623,172.991241 323.195099,172.955109 
	C323.141846,176.706940 322.740051,180.473114 322.210510,184.603180 
	C321.395386,184.964813 320.708008,184.962585 319.683533,184.957413 
	C319.532898,181.274902 319.719391,177.595322 319.948303,173.475250 
z"/>
<path fill="#4F96A5" opacity="1.000000" stroke="none" 
	d="
M309.185272,176.390564 
	C310.239502,176.224365 311.218079,176.519974 312.498291,176.864517 
	C312.500305,180.326340 312.200684,183.739243 311.843262,187.568268 
	C311.073212,187.976608 310.361023,187.968811 309.289978,187.950775 
	C308.990601,184.244492 309.050110,180.548416 309.185272,176.390564 
z"/>
<path fill="#5AA0AC" opacity="1.000000" stroke="none" 
	d="
M250.226013,205.207458 
	C250.039719,204.164856 250.057159,203.385941 250.092545,202.214828 
	C252.678970,203.288528 255.247452,204.754395 257.884705,206.719116 
	C258.241821,208.509140 258.530121,209.800308 258.818420,211.091476 
	C256.022217,209.218033 253.225983,207.344589 250.226013,205.207458 
z"/>
<path fill="#62B0BD" opacity="1.000000" stroke="none" 
	d="
M297.031311,201.411804 
	C297.752045,200.944763 298.439056,200.950500 299.467102,200.956177 
	C299.219452,207.006775 298.630798,213.057434 297.808777,219.296326 
	C297.330017,218.945953 297.084656,218.407333 296.839294,217.868713 
	C296.892059,212.540680 296.944824,207.212646 297.031311,201.411804 
z"/>
<path fill="#4E9EAD" opacity="1.000000" stroke="none" 
	d="
M251.045319,192.449738 
	C251.430069,191.790985 252.025970,191.386353 252.955704,190.832489 
	C255.404617,191.872040 257.519684,193.060822 259.843811,194.491989 
	C259.742462,195.597778 259.432068,196.461197 259.050659,197.658295 
	C256.405243,196.229263 253.830856,194.466568 251.045319,192.449738 
z"/>
<path fill="#73A2B0" opacity="1.000000" stroke="none" 
	d="
M233.852707,165.602020 
	C233.806900,166.104477 233.563232,166.343689 233.159027,166.781250 
	C228.797287,164.272781 224.596115,161.565979 220.394943,158.859161 
	C220.753967,158.299026 221.112991,157.738907 221.472031,157.178772 
	C225.532974,159.898773 229.593903,162.618774 233.852707,165.602020 
z"/>
<path fill="#559CA9" opacity="1.000000" stroke="none" 
	d="
M351.871521,261.453491 
	C353.429199,264.091064 353.057190,266.081238 350.166351,266.438385 
	C349.298004,266.545685 347.406403,264.831970 347.354767,263.878235 
	C347.199219,261.004303 348.927246,260.095245 351.871521,261.453491 
z"/>
<path fill="#A7A7AF" opacity="1.000000" stroke="none" 
	d="
M405.926514,342.057190 
	C409.242828,342.321045 412.424713,342.890167 415.606598,343.459290 
	C415.735077,343.976715 415.863525,344.494110 415.992004,345.011505 
	C414.257629,345.355225 412.491638,346.077515 410.797729,345.936249 
	C409.101532,345.794769 407.477264,344.790649 405.449158,344.196198 
	C405.315247,343.605988 405.553680,342.984222 405.926514,342.057190 
z"/>
<path fill="#73A2B0" opacity="1.000000" stroke="none" 
	d="
M321.319336,130.913452 
	C320.767914,130.718018 320.550323,130.470932 320.127136,130.075333 
	C323.725403,127.899612 327.507629,125.891434 331.289856,123.883263 
	C331.589996,124.467712 331.890106,125.052162 332.190247,125.636612 
	C328.685059,127.372002 325.179901,129.107391 321.319336,130.913452 
z"/>
<path fill="#4E8193" opacity="1.000000" stroke="none" 
	d="
M300.981750,186.493561 
	C300.023132,186.346512 299.127563,185.808365 297.967224,185.073593 
	C297.771210,182.869202 297.839996,180.861435 297.971954,178.424408 
	C299.118103,178.034119 300.201080,178.073059 301.506714,178.027405 
	C301.501221,180.662674 301.273041,183.382568 300.981750,186.493561 
z"/>
<path fill="#A7A7AF" opacity="1.000000" stroke="none" 
	d="
M258.991699,339.685547 
	C256.183472,339.878662 253.379700,339.709320 250.575912,339.539978 
	C250.568787,338.840881 250.561676,338.141754 250.554565,337.442657 
	C253.085068,337.306885 255.615555,337.171082 258.589172,337.098816 
	C259.020203,337.882599 259.008179,338.602875 258.991699,339.685547 
z"/>
<path fill="#5C8393" opacity="1.000000" stroke="none" 
	d="
M267.628845,141.998047 
	C268.475525,142.950699 268.955292,143.937546 269.590240,145.125397 
	C269.750183,145.609070 269.754944,145.891754 269.731140,146.597900 
	C267.505066,145.979645 265.307526,144.937897 263.047791,143.556061 
	C264.411011,142.821381 265.836426,142.426804 267.628845,141.998047 
z"/>
<path fill="#4F96A5" opacity="1.000000" stroke="none" 
	d="
M259.034424,211.334961 
	C258.530121,209.800308 258.241821,208.509140 258.064270,206.996399 
	C259.942719,207.735138 261.710388,208.695450 263.706299,209.902496 
	C263.593231,211.263763 263.251953,212.378311 262.944214,213.766327 
	C261.735321,213.219360 260.492889,212.398895 259.034424,211.334961 
z"/>
<path fill="#A7A7AF" opacity="1.000000" stroke="none" 
	d="
M455.152344,336.115326 
	C458.209229,336.518219 461.237732,337.364685 464.266266,338.211151 
	C464.156281,338.786774 464.046295,339.362366 463.936340,339.937988 
	C461.255280,339.391907 458.574249,338.845825 455.532776,338.318909 
	C455.156219,337.745026 455.140137,337.151978 455.152344,336.115326 
z"/>
<path fill="#73A2B0" opacity="1.000000" stroke="none" 
	d="
M296.653625,218.243225 
	C297.084656,218.407333 297.330017,218.945953 297.764709,219.708710 
	C297.753082,223.646317 297.552155,227.359802 297.351227,231.073288 
	C296.860382,231.052261 296.369537,231.031235 295.878693,231.010208 
	C296.075104,226.879395 296.271515,222.748566 296.653625,218.243225 
z"/>
<path fill="#73A2B0" opacity="1.000000" stroke="none" 
	d="
M330.065002,206.346283 
	C330.440399,205.925949 330.783752,205.912872 331.378540,205.872070 
	C331.412537,207.893677 331.195099,209.943024 330.977692,211.992355 
	C330.662750,211.985382 330.347839,211.978394 330.032928,211.971405 
	C330.032928,210.232132 330.032928,208.492844 330.065002,206.346283 
z"/>
<path fill="#708997" opacity="1.000000" stroke="none" 
	d="
M286.987030,162.335876 
	C287.519196,162.176804 288.046631,162.290512 288.947693,162.570801 
	C288.600342,163.013397 287.879395,163.289413 287.067719,163.359833 
	C286.978790,162.972366 286.980560,162.790512 286.987030,162.335876 
z"/>
<path fill="#73A2B0" opacity="1.000000" stroke="none" 
	d="
M330.617065,193.209488 
	C330.662140,194.373047 330.537872,195.868744 330.230408,197.688492 
	C330.180725,196.522232 330.314178,195.031937 330.617065,193.209488 
z"/>
<path fill="#5C8393" opacity="1.000000" stroke="none" 
	d="
M266.924652,164.438858 
	C267.446686,164.542404 268.127411,164.893509 268.948944,165.504669 
	C268.420959,165.405289 267.752136,165.045853 266.924652,164.438858 
z"/>
<path fill="#4F96A5" opacity="1.000000" stroke="none" 
	d="
M253.252014,129.683731 
	C253.549515,129.246887 254.131042,128.756790 255.016953,128.231750 
	C254.726242,128.674713 254.131149,129.152588 253.252014,129.683731 
z"/>
<path fill="#4E9EAD" opacity="1.000000" stroke="none" 
	d="
M316.002838,144.997971 
	C316.463470,145.006531 316.920624,145.018723 317.721069,145.037201 
	C317.610107,145.364365 317.155853,145.685226 316.437347,146.097046 
	C316.173096,146.187973 316.092560,146.102890 316.049622,145.808899 
	C316.002716,145.346863 315.998749,145.178818 315.994812,145.010757 
	C315.994812,145.010757 315.999359,145.001617 316.002838,144.997971 
z"/>
<path fill="#6CBBC5" opacity="1.000000" stroke="none" 
	d="
M212.501221,190.504044 
	C212.514465,190.504456 212.487976,190.503632 212.501221,190.504044 
z"/>
<path fill="#6CBBC5" opacity="1.000000" stroke="none" 
	d="
M341.762390,183.207245 
	C342.078613,183.213577 342.118469,183.464340 341.789520,183.807388 
	C341.655457,183.877747 341.720764,183.429749 341.762390,183.207245 
z"/>
<path fill="#6CBBC5" opacity="1.000000" stroke="none" 
	d="
M341.822906,181.247086 
	C342.104858,181.218170 342.168884,181.482697 341.928528,181.898315 
	C341.817566,181.840363 341.811218,181.670715 341.822906,181.247086 
z"/>
<path fill="#6CBBC5" opacity="1.000000" stroke="none" 
	d="
M341.866180,179.247177 
	C342.133789,179.220016 342.195709,179.485245 341.968567,179.901123 
	C341.863037,179.844467 341.856689,179.673721 341.866180,179.247177 
z"/>
<path fill="#4E9EAD" opacity="1.000000" stroke="none" 
	d="
M318.234680,145.047546 
	C318.188385,144.859512 318.416962,144.768936 318.804138,144.853394 
	C318.920441,144.904617 318.467194,145.021179 318.234680,145.047546 
z"/>
<path fill="#A09FA8" opacity="1.000000" stroke="none" 
	d="
M333.595032,286.809143 
	C327.385773,288.626434 326.921997,288.276245 326.962006,282.292694 
	C326.978210,279.870300 326.964722,277.447693 326.964722,274.569397 
	C331.823547,277.322632 334.884399,283.096771 333.595032,286.809143 
z"/>
<path fill="#397588" opacity="1.000000" stroke="none" 
	d="
M286.888733,174.251526 
	C290.674042,177.529449 288.690491,181.375183 288.509979,185.103638 
	C287.866547,185.170227 287.223145,185.236801 286.579712,185.303391 
	C286.375763,182.494904 286.171814,179.686401 285.954224,176.426605 
	C286.191193,175.469162 286.441772,174.963013 286.888733,174.251526 
z"/>
<path fill="#A7A7AF" opacity="1.000000" stroke="none" 
	d="
M229.389069,339.266357 
	C226.215012,340.041504 224.299438,338.890991 224.226791,336.075287 
	C224.187500,334.552826 225.084274,332.033173 226.128464,331.688385 
	C227.619827,331.195862 229.633499,332.284882 231.424133,332.698486 
	C230.863190,334.843567 230.302246,336.988647 229.389069,339.266357 
z"/>
<path fill="#A09FA8" opacity="1.000000" stroke="none" 
	d="
M228.938461,345.945129 
	C228.111649,345.497375 227.590347,345.023376 227.069031,344.549347 
	C227.963303,344.421204 228.857590,344.293060 229.751862,344.164886 
	C229.582581,344.749542 229.413269,345.334198 228.938461,345.945129 
z"/>
<path fill="#A7A7AF" opacity="1.000000" stroke="none" 
	d="
M408.219238,334.235413 
	C410.343048,333.143250 412.408936,332.429077 414.474854,331.714905 
	C414.966827,333.362366 416.157898,335.220490 415.743652,336.594757 
	C415.369446,337.836212 412.487030,339.624664 412.021881,339.299042 
	C410.424469,338.180695 409.402557,336.240356 408.219238,334.235413 
z"/>
<path fill="#A09FA8" opacity="1.000000" stroke="none" 
	d="
M258.974457,294.794220 
	C260.099335,294.358673 260.925171,293.869537 261.682739,293.958893 
	C263.420898,294.163910 265.125763,294.651062 266.844147,295.023682 
	C266.246826,296.623199 265.994843,299.268860 264.980072,299.603851 
	C262.883850,300.295807 260.381165,299.756531 258.045685,299.723663 
	C258.245270,298.150238 258.444855,296.576782 258.974457,294.794220 
z"/>
<path fill="#A09FA8" opacity="1.000000" stroke="none" 
	d="
M238.146332,286.643158 
	C236.490433,286.731171 235.073624,287.022034 233.917267,286.599731 
	C232.373444,286.035950 231.031891,284.918335 229.603455,284.038574 
	C230.658600,282.906342 231.719254,280.827789 232.767822,280.833832 
	C235.138367,280.847565 237.502930,281.890472 239.869904,282.514771 
	C239.413712,283.852692 238.957535,285.190582 238.146332,286.643158 
z"/>
<path fill="#A09FA8" opacity="1.000000" stroke="none" 
	d="
M159.560257,338.540009 
	C159.502502,338.574463 159.618011,338.505554 159.560257,338.540009 
z"/>
<path fill="#A09FA8" opacity="1.000000" stroke="none" 
	d="
M164.450867,338.522461 
	C164.416367,338.465790 164.485367,338.579102 164.450867,338.522461 
z"/>
<path fill="#A09FA8" opacity="1.000000" stroke="none" 
	d="
M436.209473,338.335114 
	C436.986298,338.260712 437.580017,338.380676 438.173767,338.500671 
	C438.018158,338.880524 437.862549,339.260345 437.706940,339.640198 
	C437.146759,339.269958 436.586548,338.899719 436.209473,338.335114 
z"/>
<path fill="#A7A7AF" opacity="1.000000" stroke="none" 
	d="
M388.533569,335.344116 
	C389.393311,336.607117 389.872711,337.786804 390.352142,338.966522 
	C388.496124,339.228119 386.638123,339.658447 384.785370,339.637146 
	C384.298798,339.631561 383.828308,338.226562 383.350433,337.464203 
	C384.951385,336.729736 386.552307,335.995270 388.533569,335.344116 
z"/>
<path fill="#A09FA8" opacity="1.000000" stroke="none" 
	d="
M461.106323,332.652374 
	C461.290649,332.416351 461.541443,332.320923 461.800659,332.263214 
	C461.823547,332.258148 461.901276,332.499451 461.953552,332.626312 
	C461.694061,332.685242 461.434540,332.744171 461.106323,332.652374 
z"/>
<path fill="#62B0BD" opacity="1.000000" stroke="none" 
	d="
M315.909485,145.125626 
	C315.998749,145.178818 316.002716,145.346863 316.008423,145.767212 
	C315.786896,145.791931 315.724884,145.532242 315.909485,145.125626 
z"/>
</svg>